<?xml version="1.0" standalone="no"?><!DOCTYPE svg PUBLIC "-//W3C//DTD SVG 1.1//EN" "http://www.w3.org/Graphics/SVG/1.1/DTD/svg11.dtd"><svg t="1749021404240" class="icon" viewBox="0 0 1024 1024" version="1.1" xmlns="http://www.w3.org/2000/svg" p-id="11092" xmlns:xlink="http://www.w3.org/1999/xlink" width="200" height="200"><path d="M480.013 657.024c-13.255 0-24-10.745-24-24V450.52a24 24 0 0 1 7.029-16.971l268.672-268.673c9.373-9.372 24.568-9.372 33.941 0 9.372 9.373 9.372 24.569 0 33.941L504.013 460.461v172.563c0 13.255-10.745 24-24 24z" fill="#777777" p-id="11093"></path><path d="M682.02 587.464c-4.05 0-8.087-1.024-11.713-3.052L532.98 507.631c-11.568-6.468-15.703-21.091-9.236-32.66 6.471-11.57 21.094-15.703 32.66-9.236l110.25 61.642 90.611-346.228-393.455 174.5 75.26 43.354c11.485 6.617 15.433 21.291 8.816 32.776s-21.289 15.434-32.776 8.816l-116.196-66.936a24 24 0 0 1 2.25-42.735L783.373 117.06a24 24 0 0 1 32.948 28.015L705.236 569.54a24 24 0 0 1-23.216 17.924z" fill="#777777" p-id="11094"></path><path d="M839 919H185c-44.112 0-80-35.888-80-80V185c0-44.112 35.888-80 80-80h134.863v64H185c-8.822 0-16 7.178-16 16v654c0 8.822 7.178 16 16 16h654c8.822 0 16-7.178 16-16V458.209h64V839c0 44.112-35.888 80-80 80z" fill="#777777" p-id="11095"></path><path d="M319.863 137m-32 0a32 32 0 1 0 64 0 32 32 0 1 0-64 0Z" fill="#777777" p-id="11096"></path><path d="M887 458.209m-32 0a32 32 0 1 0 64 0 32 32 0 1 0-64 0Z" fill="#777777" p-id="11097"></path></svg>