<?xml version="1.0" standalone="no"?><!DOCTYPE svg PUBLIC "-//W3C//DTD SVG 1.1//EN" "http://www.w3.org/Graphics/SVG/1.1/DTD/svg11.dtd"><svg t="1749030469324" class="icon" viewBox="0 0 1024 1024" version="1.1" xmlns="http://www.w3.org/2000/svg" p-id="4352" xmlns:xlink="http://www.w3.org/1999/xlink" width="200" height="200"><path d="M956.06 142.59c-7.78-35.14-32.4-63.47-62.43-73.58-13-4.36-26-4-39.19-4H159.77c-2.45 0-4.9-0.05-7.34 0.08C121 66.74 90.77 86.79 76 119.37A124.11 124.11 0 0 0 65 171v664.65c0 16.4-0.53 32.78 3.66 48.75 9 34.45 33.7 62.83 64.3 71.4a93.3 93.3 0 0 0 25.17 3.2h712.14c31.26-1 60.69-20.27 76.51-51.66 8.27-16.41 12.18-35.08 12.21-54V172.91a141.08 141.08 0 0 0-2.93-30.32z m-68.93-1.38a10.58 10.58 0 0 1-1.41-1.27c0.09-0.08 0.69 0.5 1.41 1.27z m-756 6.63a12.22 12.22 0 0 1-1.1 1.63c-0.03-0.11 0.43-0.8 1.1-1.63z m5.75 735a9.88 9.88 0 0 1 1.41 1.27c-0.09 0.04-0.69-0.54-1.41-1.31z m660.31 6.89H155.93c-1.59 0-3.17-0.07-4.74-0.19a57.31 57.31 0 0 1-7.73-2.45 58 58 0 0 1-6-3.95c-0.38-0.28-0.74-0.57-1.1-0.86-1.1-1.21-2.28-2.58-2.4-2.71-1-1.15-1.89-2.44-2.86-3.63a71.38 71.38 0 0 1-3.66-7.32 84.29 84.29 0 0 1-2.11-8.81c-0.41-7.07-0.17-14.25-0.17-21.3v-154.7h650.91c9.11 0 18.23 0.15 27.34 0h1.18c15.73 0 30.79-15.94 30.07-34.66s-13.22-34.66-30.07-34.66h-679.4V409.7h650.88c9.11 0 18.23 0.16 27.34 0h1.18c15.73 0 30.79-15.94 30.07-34.66s-13.22-34.65-30.07-34.65h-679.4v-89.57c0-27.06-0.17-54.12 0-81.18 0-1.78 0.06-3.55 0.16-5.32a83.48 83.48 0 0 1 2.12-8.9 71.78 71.78 0 0 1 3.43-6.92c0.24-0.43 0.5-0.84 0.75-1.26 1-1.27 2.23-2.63 2.34-2.76 1-1.16 2.13-2.19 3.16-3.3a58.36 58.36 0 0 1 6.35-4.23 58.74 58.74 0 0 1 7.7-2.43c7.12-0.58 14.39-0.2 21.48-0.2h695.37c1.6 0 3.19 0.08 4.78 0.2a57.27 57.27 0 0 1 7.73 2.44 58 58 0 0 1 6 3.95c0.37 0.28 0.73 0.57 1.1 0.87 1.1 1.2 2.28 2.57 2.39 2.7 1 1.15 1.9 2.44 2.86 3.64a73.38 73.38 0 0 1 3.67 7.31 84.26 84.26 0 0 1 2.1 8.81c0.42 7.07 0.18 14.25 0.18 21.3v587.65c0 27.06 0.16 54.13 0 81.18 0 1.78-0.07 3.55-0.17 5.32a81.13 81.13 0 0 1-2.12 8.9 72.89 72.89 0 0 1-3.42 6.92c-0.25 0.43-0.5 0.85-0.76 1.26-1 1.27-2.23 2.63-2.34 2.76-1 1.16-2.12 2.19-3.16 3.3a59.23 59.23 0 0 1-6.34 4.23 58.3 58.3 0 0 1-7.77 2.45q-2 0.15-4 0.18h-71.6z m95.69-13.52a11.41 11.41 0 0 1 1.11-1.63 5.64 5.64 0 0 1-1.11 1.59z" p-id="4353"></path><path d="M804.59 204.39h-316.3c-14.62 0-29.27-0.37-43.88 0h-0.62c-15.73 0-30.79 15.94-30.07 34.66s13.21 34.65 30.07 34.65h316.3c14.61 0 29.27 0.38 43.88 0h0.62c15.73 0 30.79-15.94 30.07-34.65s-13.22-34.66-30.07-34.66zM804.59 477h-316.3c-14.62 0-29.27-0.37-43.88 0h-0.62c-15.73 0-30.79 16-30.07 34.68s13.21 34.66 30.07 34.66h316.3c14.61 0 29.27 0.37 43.88 0h0.62c15.73 0 30.79-16 30.07-34.66S821.44 477 804.59 477zM804.59 749.65h-316.3c-14.62 0-29.27-0.37-43.88 0h-0.62c-15.73 0-30.79 15.94-30.07 34.66S426.93 819 443.79 819h316.3c14.61 0 29.27 0.37 43.88 0h0.62c15.73 0 30.79-15.94 30.07-34.66s-13.22-34.69-30.07-34.69zM306.49 204.39h-70.16c-15.73 0-30.79 15.94-30.07 34.66s13.22 34.65 30.07 34.65h70.16c15.72 0 30.79-15.94 30.06-34.65s-13.21-34.66-30.06-34.66zM306.49 477h-70.16c-15.73 0-30.79 15.94-30.07 34.66s13.22 34.66 30.07 34.66h70.16c15.72 0 30.79-16 30.06-34.66S323.34 477 306.49 477zM306.49 749.65h-70.16c-15.73 0-30.79 15.94-30.07 34.66S219.48 819 236.33 819h70.16c15.72 0 30.79-15.94 30.06-34.66s-13.21-34.69-30.06-34.69z" p-id="4354"></path></svg>