<svg t="1750820453931" class="icon" viewBox="0 0 1024 1024" version="1.1" xmlns="http://www.w3.org/2000/svg" p-id="15064" width="200" height="200"><path d="M431.061333 808.362667l-3.114666 3.584-85.333334 85.333333a32 32 0 0 1-48.341333-41.642667l3.114667-3.584 51.968-52.053333H176a32 32 0 0 1-31.701333-27.648L144 768V170.666667a32 32 0 0 1 32-32h672a32 32 0 0 1 32 32v597.333333a32 32 0 0 1-32 32h-173.397333l52.053333 52.053333 3.072 3.584a32 32 0 0 1-48.341333 41.642667l-85.333334-85.333333-3.114666-3.584a31.786667 31.786667 0 0 1-4.437334-8.32h-153.002666a31.786667 31.786667 0 0 1-4.437334 8.32zM816 202.666667H208v533.333333h608V202.666667zM394.666667 341.333333a32 32 0 0 1 48.469333-27.434666l213.333333 128a32 32 0 0 1 0 54.869333l-213.333333 128A32 32 0 0 1 394.666667 597.333333z m64 56.490667v142.976L577.792 469.333333 458.666667 397.824z" p-id="15065"></path></svg>
