<?xml version="1.0" standalone="no"?><!DOCTYPE svg PUBLIC "-//W3C//DTD SVG 1.1//EN" "http://www.w3.org/Graphics/SVG/1.1/DTD/svg11.dtd"><svg t="1749021124334" class="icon" viewBox="0 0 1075 1024" version="1.1" xmlns="http://www.w3.org/2000/svg" p-id="6465" xmlns:xlink="http://www.w3.org/1999/xlink" width="209.9609375" height="200"><path d="M48.69491 51.095045h901.58692c14.232888 0 23.704415-10.239488 23.704415-25.496325 0-15.359232-9.471526-25.547523-23.704415-25.547523H48.643712C34.462021 0.051197 24.990495 10.290685 24.990495 25.59872S34.462021 51.095045 48.643712 51.095045zM950.230633 919.096445H48.746107c-14.232888 0-23.704415 10.188291-23.704415 25.496325 0 15.359232 9.471526 25.496325 23.704415 25.496326h901.586921c14.232888 0 23.704415-10.137093 23.704414-25.496326 0-15.308035-9.471526-25.496325-23.704414-25.496325zM855.156986 151.339633H143.819753a147.19264 147.19264 0 0 0-101.166141 38.39808A130.502275 130.502275 0 0 0 0.006144 287.012849v394.629869c-0.358382 36.350182 15.103245 71.420429 42.647468 96.916754 27.032248 24.984351 63.484826 38.756462 101.166141 38.39808h711.542023a147.039048 147.039048 0 0 0 100.961352-38.39808c27.544223-25.496325 43.00585-60.515374 42.647468-97.172741V286.654467a130.348683 130.348683 0 0 0-42.647468-96.865556 147.19264 147.19264 0 0 0-101.166142-38.398081z m-711.746812 51.19744h711.951602c25.59872-0.20479 49.917504 8.959552 67.478226 25.240338 17.099945 15.820009 26.417879 36.862157 26.161892 58.621069v395.244238c0.255987 22.014899-9.061947 43.057047-26.110694 58.877056a97.9919 97.9919 0 0 1-67.324634 25.189141H143.614964c-25.59872 0.255987-49.917504-8.959552-67.478227-25.240338a78.741663 78.741663 0 0 1-26.161891-58.569872v-395.244238c-0.255987-22.014899 9.061947-43.057047 26.110694-58.877056a97.9919 97.9919 0 0 1 67.324634-25.240338z" fill="#979797" p-id="6466"></path><path d="M601.576066 495.335233l-156.664167 104.647568c-2.355082 2.559872-4.710164 2.559872-7.116444 2.559872-7.065247 0-11.826609-5.068547-11.826609-12.748163V380.448178c0-7.628419 4.761362-12.79936 11.826609-12.79936 2.40628 0 4.761362 0 7.167641 2.559872l156.561772 104.698765a12.236188 12.236188 0 0 1 5.324534 10.239488c0 4.095795-2.047898 7.986801-5.324534 10.18829z" fill="#979797" p-id="6467"></path></svg>